<?xml version="1.0" encoding="utf-8"?>
<!-- Generator: Adobe Illustrator 21.0.0, SVG Export Plug-In . SVG Version: 6.00 Build 0)  -->
<svg version="1.1" id="Layer_1" xmlns="http://www.w3.org/2000/svg" xmlns:xlink="http://www.w3.org/1999/xlink" x="0px" y="0px"
	 viewBox="0 0 512 512" style="enable-background:new 0 0 512 512;" xml:space="preserve">
<style type="text/css">
	.st0{fill:#006EFC;}
</style>
<g>
	<g>
		<g>
			<rect x="264.1" y="280" class="st0" width="15.8" height="16"/>
			<rect x="264.1" y="312" class="st0" width="15.8" height="16"/>
			<rect x="264.1" y="344" class="st0" width="15.8" height="16"/>
			
				<rect x="228.7" y="184.1" transform="matrix(0.7071 -0.7071 0.7071 0.7071 -65.4711 225.9397)" class="st0" width="22.6" height="15.8"/>
			
				<rect x="252.7" y="208.1" transform="matrix(0.7071 -0.7071 0.7071 0.7071 -75.4117 249.9441)" class="st0" width="22.6" height="15.8"/>
			<path class="st0" d="M319.9,40c0-19-38.5-22.9-56-23.7V0h-15.8v16.3c-17.5,0.8-56,4.7-56,23.7c0,32.6,24.5,59.5,56,63.4v16.7h-48
				v271.8h48v16.7c-31.5,3.9-56,30.8-56,63.4c0,19,38.5,22.9,56,23.7V512h15.8v-16.3c17.5-0.8,56-4.7,56-23.7
				c0-32.6-24.5-59.5-56-63.4v-16.7h48V120.1h-48v-16.7C295.4,99.5,319.9,72.6,319.9,40z M263.9,32.1c20.8,0.9,34.2,4.9,38.9,7.9
				c-4.7,3-18.1,7.1-38.9,7.9V32.1z M209.2,40c4.7-3,18.1-7.1,38.9-7.9v15.8C227.3,47.1,213.9,43,209.2,40z M215.9,311.9h16.2v32.2
				h-16.2V311.9z M248.1,479.9c-20.8-0.9-34.2-4.9-38.9-7.9c4.7-3,18.1-7.1,38.9-7.9V479.9z M302.8,472c-4.7,3-18.1,7.1-38.9,7.9
				v-15.8C284.7,464.9,298.1,469,302.8,472z M300.5,453.9c-17.3-5.6-40.5-5.9-44.6-5.9c-4,0-27.2,0.3-44.6,5.9
				c7.2-17.6,24.4-30,44.6-30C276.1,423.9,293.4,436.4,300.5,453.9z M296.1,376.1h-80.2v-16.2h32v-63.8h-32v-40.2h80.2V376.1z
				 M296.1,240.1h-80.2v-72.2h80.2V240.1z M296.1,135.9v16.2h-80.2v-16.2H296.1z M256,88.1c-20.1,0-37.4-12.4-44.6-30
				c17.3,5.6,40.5,5.8,44.6,5.8c4,0,27.2-0.3,44.6-5.8C293.4,75.7,276.1,88.1,256,88.1z"/>
			<path class="st0" d="M344.1,104.1v144H328v15.8h16.1v144h167.8V104.1H344.1z M359.9,119.9h136.2v48.2H359.9V119.9z M359.9,183.9
				h136.2v144.2H359.9V183.9z M359.9,392.1v-48.2h136.2v48.2L359.9,392.1L359.9,392.1z"/>
			<path class="st0" d="M167.9,104.1H0.1v303.8h167.8v-144H184v-15.8h-16.1V104.1z M15.9,119.9h136.2v48.2H15.9V119.9z M15.9,183.9
				h136.2v144.2H15.9V183.9z M15.9,392.1v-48.2h136.2v48.2L15.9,392.1L15.9,392.1z"/>
			
				<rect x="27" y="204.1" transform="matrix(0.7071 -0.7071 0.7071 0.7071 -137.0183 93.2022)" class="st0" width="33.9" height="15.8"/>
			
				<rect x="17.1" y="228.1" transform="matrix(0.7071 -0.7071 0.7071 0.7071 -146.9645 117.2002)" class="st0" width="101.8" height="15.8"/>
			
				<rect x="29.8" y="260.1" transform="matrix(0.7071 -0.7071 0.7071 0.7071 -162.561 143.551)" class="st0" width="124.5" height="15.8"/>
			
				<rect x="87.7" y="284.1" transform="matrix(0.7071 -0.7071 0.7071 0.7071 -172.5062 167.5447)" class="st0" width="56.6" height="15.8"/>
			
				<rect x="371" y="204.1" transform="matrix(0.7071 -0.7071 0.7071 0.7071 -36.2713 336.4359)" class="st0" width="33.9" height="15.8"/>
			
				<rect x="361.1" y="228.1" transform="matrix(0.7071 -0.7071 0.7071 0.7071 -46.2187 360.4318)" class="st0" width="101.8" height="15.8"/>
			
				<rect x="373.8" y="260.1" transform="matrix(0.7071 -0.7071 0.7071 0.7071 -61.8013 386.7903)" class="st0" width="124.5" height="15.8"/>
			
				<rect x="431.7" y="284.1" transform="matrix(0.7071 -0.7071 0.7071 0.7071 -71.7402 410.8143)" class="st0" width="56.6" height="15.8"/>
		</g>
	</g>
</g>
</svg>
