<?xml version="1.0" encoding="utf-8"?>
<!-- Generator: Adobe Illustrator 21.0.0, SVG Export Plug-In . SVG Version: 6.00 Build 0)  -->
<svg version="1.1" id="Layer_1" xmlns="http://www.w3.org/2000/svg" xmlns:xlink="http://www.w3.org/1999/xlink" x="0px" y="0px"
	 viewBox="0 0 926 137" style="enable-background:new 0 0 926 137;" xml:space="preserve">
<style type="text/css">
	.st0{fill:#006EFC;}
	.st1{fill:#006EFC;stroke:#231F20;stroke-width:6.677441e-02;stroke-miterlimit:10;}
</style>
<g>
	<path class="st0" d="M673.5,41.1l0.2-0.7c0.8-2.9,3-5.7,6.7-8.4c3.7-2.7,7-4,10.1-4c6,0,10.1,1.5,12.9,3c2.5,1.5,5.5,2.7,8.8,5.1
		l0.1,0.1c1.5,1.2,3.1,2.4,4.7,3.6l0.4-1.3c-4.4-4.3-9.3-7.3-12.9-9c-2.7-1.5-6.4-2.5-9.1-3.2c-2.6-0.7-5.2-1.1-7.8-1.1
		c-2,0-3.9,0.4-5.8,1.2c-1.9,0.8-3.8,2-5.6,3.6c-3.5,3.1-5.2,6.4-5.2,10.2c0,0.3,0.2,1.2,1.8,3l2.5,3.5h-11.2v2.1h11.1v47.8h2.2
		V48.8h6.1v-2.1H677L673.5,41.1z"/>
	<path class="st0" d="M796,48.8v-2.1h-4.9l-0.2-2.9c-0.1-3-0.5-4.3-2.8-6.3c-2.2-1.9-6.8-2.9-9.9-2.9c-0.4,0-1.4,0.1-4.2,0.6
		c-5.1,1.2-17.3,1-16.7-5.6l0.1-2.1l-1.1-0.6c-0.2,0.5-0.2,1.1-0.2,1.6c0,3.4,1.4,6,4.4,8c2.8,2,6.1,3,9.9,3c1,0,2.5-0.1,4.6-0.4
		c2.3-0.3,4-0.4,5.2-0.4c1.3,0,3.6,0.1,5.5,0.5c4.1,0.5,3.9,4.5,2.7,7.4h-31.8l0.2,0.2H733l-0.1-0.2h-8.4v17l-3-5.1
		c-2.8-7.2-9.5-11.8-17-11.6c-1.9,0.1-3.7,0.3-5.4,1c-1.8,0.6-3.6,1.6-5.4,2.9c-3.7,2.6-5.5,5.4-5.5,8.7c0,1,0.3,1.8,0.8,2.4
		c0.4,0.5,0.9,0.8,1.6,0.8c0.1,0,0.5-0.1,1.3-0.7c2.7-1.9,2.8-2,3.6-2h0.1h0.1c1.4,0.1,2.7,0.9,3.8,2.2c1,1.2,1.5,2.6,1.5,3.9
		c0,1-0.4,2.2-4.6,7.6l4.5,1.6L718.2,57l6.5,10.6V79h-0.1v17.5l0,0c-1.5-2-3.9-2.7-6.1-3.8c-0.2-0.1-0.9-0.3-2.8-0.3
		c-0.6,0-3.1,0.2-5.2,0.4c-1.9,0.2-3.7,0.3-4.7,0.3c-2.4,0.2-4.1,0.2-5.3,0.2c-3.3,0-5.1-0.3-7-1v-0.1h-0.1
		c-3.1-1.3-4.8-3.8-4.8-7.4v-2.3l-0.6-0.3c-0.2,2-0.2,2.6-0.2,2.8c0,4.3,0.9,7.6,2.8,9.6c0.9,1,1.9,1.7,3.3,2.2
		c1.4,0.5,3.1,0.7,5.1,0.7c1.5,0,3.1-0.1,6.1-0.3l0.3-0.1l3.5-0.3c4.4-0.4,7.6-0.6,8.8-0.6c2.8,0,4.8,0.6,6.1,2
		c0.9,0.9,1.5,2.2,2,4.4l0.2,0.9l0.3,1c0.2,0.1,0.3,0.1,0.5,0.1c0.1,0,0.1,0,0.1,0V93.3l0.1,0.1V48.8h8.1V49h32.4l0.3,1.8
		c0.3,1.8,0.4,7.5,0.4,9.4v12.9c-2.8-5.3-9.2-12.5-20.5-13.3c-2.7,0-4.9,0.7-6.9,2.2c-2,1.4-2.9,3.3-2.9,5.6c0,2,0.6,3.5,1.9,4.6
		c1.3,1.2,2.9,1.8,4.9,1.8c1.3,0,2.8-0.6,3.7-1.7c0.8-1.1,1.3-1.9,1.3-3.5c0.1-1.9-1.2-5.8-6.8-6c5.8-1.7,10.6-0.5,16.8,3.7
		c3.4,2.7,7,7.6,8.5,10.1V83c0,0.7,0.3,2.5,2.8,5.6c2.6,3.4,3.7,3.5,3.8,3.5c0.4,0,1.8-0.2,5-2c4.4-2.3,7.5-5.2,9.3-8.4
		c2.1-3.9,3.8-11.9,2.1-17.2c-2.1-3.6-7.5-4.8-9.5,0.1c-0.3,0.6-0.4,1.3-0.4,1.9c0,0.3,0,0.7,0.1,1c1.2,2.8,4.5,3.1,7.2,2.9
		c0.7,6.7-5.6,15.3-12.2,18.1c-1.8,0.3-3.7-1.3-4.7-2.5c-0.9-0.9-1.1-1.6-1.1-2.3V48.8H796z M703.3,66.6l-0.6-2.8
		c-0.1-0.7-0.3-1.3-0.7-1.9c-1.4-2.4-3.7-3.3-5.8-4.1l-3.4-0.9l2.5-2.3c3.4-3.1,6.8-4.7,10.2-4.7c3,0,5.8,1,8,2.8l1.8,1.4
		L703.3,66.6z"/>
	<path class="st0" d="M416.9,46.7l-0.3-1.8c-0.7-3.6-1.8-6.8-3.5-9.7c-1.6-2.9-3.8-5.4-6.5-7.6c-2.6-2.1-5.6-3.8-8.7-4.9
		c-3.2-1.1-6.6-1.6-10.3-1.6c-4,0-7.4,0.7-10.1,2.2h-0.1c-3.2,1.7-4.7,3.9-4.7,7c0,2.1,0.8,3.7,2.2,4.9c3.3,2.3,4.3,1.9,12.3,3.5
		c2.4,0.4,6.8,1.3,6.8,4.5c0.1,1-0.6,2.5-1,3.5c-16.1,0.1-32.1-0.2-48.1,0h-49.3l-0.3-1.8c-0.7-3.6-1.8-6.8-3.5-9.7
		c-1.6-2.9-3.8-5.4-6.5-7.6c-2.6-2.1-5.6-3.8-8.7-4.9c-3.2-1.1-6.6-1.6-10.3-1.6c-4,0-7.4,0.7-10.2,2.2c-1.6,0.8-2.8,1.8-3.6,3
		c-0.7,1.1-1.1,2.5-1.1,4c0,2.9,1.4,5,4.3,6.2c1,0.4,3.5,1.1,9.6,2.1c2.2,0.4,7.1,1,7.1,4.5c0,0.6,0.2,1.4-0.7,3.6h-35.3v2.1h5.7
		l0.6,1.2c0.9,1.6,2.2,2.5,4.2,2.7c6,0.5,6.9,0.8,7.4,1.1c2.5,1.2,3.5,2.7,4.2,6.4c0.3,1.3,0.4,2.6,0.4,4l0,2.8l-2.3,3
		c-2.3,2.9-3.8,4.6-5.4,5.5c-1.7,1-4.5-0.4-5.4-3.4l-0.7,0.6c1.1,3.8,5.4,11.5,9.7,7.3c2.9-3.5,7.9-8.9,10.4-11.5
		c2.6-2.6,3.8-2.9,4.7-2.9c1.2,0,2.7,0.6,4.5,1.8c0.7,0.5,3,2.1,3,4.3v22.8h2.2V48.8H294v45.6h1.9V48.8h9.4c0.9,2.1,2.5,3.8,4.5,4.9
		c3,1.6,6.2,2,9.1,3.9c2.3,1.5,4.2,3.8,5.1,5.9c1.2,2.6,0.6,6,0.1,7.2c-3.5-0.6-8.4-1.3-11.1,1.3c-3.6,3.1-1.2,8.8,2.6,10.9
		c4.2,2.6,11-1.6,11.9-5.8c1.8,1.2,4.7,4.3,5.8,5.3c2.3,2.2,4.9,5.6,6.1,7.8c0,0,0,0,0,0c0,0,0.1,0.4,0.9,4h1.3V48.8
		c4.7,0,9.3,0.2,14,0.1V95h2.2V49h7.1l-0.1-0.1H381c2.2,0,3.7,2.3,4.7,4.3l1.2,2.4l-2.6,0.6c-4.2,1.1-6,2.4-7,3.1
		c-1.8,1.4-3.7,3.1-3.5,6.5c0.1,1.3,1.4,2.7,2,3.2c0.7,0.6,2.6,1.4,4.1,1.4c1.7,0,3.8-0.8,5.6-2.4c1-0.8,1.5-1.9,1.8-3
		c0.2-1.1,0.2-2.2,0-3.3v-0.2l0.9-0.6c1-0.8,2.5-1.2,4.5-1.2c7.3,0,8,4.8,8,6.9c0,3.5-1.8,7.6-5.9,10.5c-3.6,2.5-6.2,3.6-10.4,4.1
		c-3.5,0.4-6.9,0.2-11.1-1.5l1.4,3.2c9.5,2.9,18.9,8.6,24.1,12c4.3,2.8,8.1,6.4,11.8,10.8l0.2-2.7c-8.5-8.3-15.4-12.9-20.5-15.8
		l-4.1-2.4l4.5-1.5c3.2-1.1,6-2.9,8.3-5.4c2.4-2.7,3.3-5.5,3.6-8.5c0.4-3.8-0.3-7.1-3-9.3c-1.1-1.1-2.8-1.8-4.3-2.5
		c-1.5-0.8-3.3-1.3-5.2-1.6l-1-0.2l-0.5-0.9c-0.4-0.6-0.8-1.2-1-1.8c-0.5-1.4-1.1-2.8-1.9-4.1l-0.1-0.2h29.7v47.7h2.2V48.8h42.4
		v32.9c-2.8-7.5-8.5-17-19-17.9c-3-0.3-5.5,0.8-7.6,2.5c-0.8,0.6-1.3,1.2-1.8,1.9c-2.1,2.9-1.9,7.6,0.2,10.3c1.5,2.3,5,2.6,7.5,1.9
		c1.8-0.6,3.3-1.9,4.1-4.1c1.1-4-0.5-8-3.8-10.7c8.8-0.1,17.1,8.5,19.8,19.6c1.4,4.5,2,8.1,2,10.9h0.7V48.8h6.9l-0.1-2.1H416.9z
		 M277.4,67.6c-2.9-4.2-11.4-10-16.7-2.6l-0.1-3.2c-0.1-3.5-1.4-7.2-3.5-9.4l-3.5-3.6h23.8V67.6z M273.5,46.8c0.3-2,0.8-4.2-0.8-6.9
		c-0.7-1.1-1.7-2.2-3.1-3.1h-0.1c-2.3-1.6-4.8-1.8-8.4-2.2c-0.3,0-0.5,0-0.8,0c-1,0-2.4-0.2-3.6-0.3c-0.9-0.1-1.8-0.5-2.3-1.3
		c-0.3-0.4-0.5-0.8-0.8-1.2c-0.5-0.8-0.6-1.8-0.3-2.7c1-2.9,2-5.2,9.4-5.2c4.4,0,9,0.7,13.5,1.9c6,1.6,10,3.8,12.2,6.9
		c3.5,4.9,5.3,8.9,5.4,11.9l0.1,2.2H273.5z M339.5,87.4l-10.8-12.5v-0.7c-0.1-3.8,0.2-7.3-2.4-11.2l-1.2-1.9
		c-1.4-2.4-4.7-4.4-9.3-8.7l-3.6-3.6h27.3V87.4z M415,46.7h-20.2c0.1-2.2,0.4-5-0.9-6.9c-0.6-1-1.4-1.9-2.5-2.7
		c-3.3-2.5-7.8-3.4-12.2-2.9c-1.5,0.1-3.1,0.1-4.1-0.8c-1.3-1.1-1.2-2.4-1.2-3.3c0-2.9,1.4-6.3,9.8-6.3c4.4,0,9,0.7,13.5,1.9
		c3.8,1,6.8,2.3,9,3.8c2.2,1.3,3.9,3.9,5.3,6.2C413.7,39.2,415.3,43.1,415,46.7z"/>
	<path class="st0" d="M651.6,48.5l-0.1-2.1h-54.4l-0.1-2.1c-0.1-3-1.1-5.1-3-6.6c-2-1.6-4.5-2.3-7.8-2.3c-0.2,0-2.2,0.1-11.6,0.7
		h-0.1H574c-1.2,0-2.4-0.3-3.5-0.8h-0.1c-2.5-1.3-2.9-3.2-2.9-4.3c0-0.9,0.3-1.9,1-2.9c-0.4,0.1-0.8,0.3-1.1,0.5
		c-0.3,0.4-0.7,0.8-0.7,1.8c0,2.8,1.1,5,3.4,6.8c2.2,1.7,4.7,2.5,7.8,2.5c0.6,0,1.6,0,3.6-0.3c1.8-0.2,3.1-0.4,4.1-0.4
		c2.5,0,10,0,10,5.1v2.4h-40.2l-0.1-0.1l-17.8,0.1h-53.6v2.1h33.2v5.2l-1.4,0.5c-4.3,1.8-8.9,4-13.9,6.7c-2.6,1.4-6.4,3.6-11.5,6.6
		l4.9,5.6c6.8,1.2,12,3.9,15.6,7.9c2.3,2.6,4.6,6.7,7.1,12.6l0,0l0,0l-0.1,6.3c-1.4-5.6-7.5-8.1-10.6-8.1c-2.1,0-2.2,0.4-3.3,1.7
		l-1.3,2.2l-1.9-1.7c-2.4-2-4.6-3-6.7-3c-1.6,0-3.4,0.8-5.3,2.3c-1.8,1.4-3.2,2.9-3.3,7.5c0,2.1,1.2,3.9,3,5.4
		c1.9,1.5,4,2.3,6.3,2.3c1.1,0,2-0.4,2.9-1.3c0.9-0.8,1.3-1.8,1.3-2.9c0-1-0.4-1.9-1.2-2.7c-0.8-0.8-1.6-1.2-2.6-1.2
		c-0.3,0-0.8,0-1.5,0.6c-0.6,0.6-0.7,1-0.8,1.3c-0.1,0.4-0.1,1-0.1,1.2c0.3,1.5,1.7,2.6,3.3,2.5c-3.8,3-8-2.5-8.1-3.7
		c-0.5-5,2.5-8,6.7-8c1.2,0,2.9,0.5,7.1,4.2c1.1,0.9,2.2,1.8,3.2,2.8c0.1-0.1,0.1-0.1,0.1-0.2c0.4-5,3.9-5.4,5-5.4
		c3.7,0,7.3,2,8.1,15l0,0l1.1,0.1l0.1-32.2l0.1-0.5V57.9l2.2,0.1c3.2,0.1,6.3,1.5,9.1,4.2c1.9,1.8,3.2,3.7,3.8,5.9
		c0.5,1.9,0.4,3.9-0.2,5.8l-0.4,1.4c-1.3-5.2-8.3-4.8-8.3,0c0,2,1,2.5,1.3,2.7c0.7,0.6,2,0.8,3.7,0.8c2.1,0,2.9-0.9,3.4-1.6l0.1-0.1
		c0.7-1.3,1.5-3.5,1.5-6.2c0-1.9-0.4-3.8-1.1-5.6c-0.8-1.9-1.9-3.7-3.3-5.5c-2.9-3.8-6.2-5.7-9.8-5.8l-2.1-0.1v-5.1h20.2l0.1,0.1
		h8.7V95h2.2V48.4h7.1l-0.1-0.1H576v2.1c0,8.2,0,12.7-0.1,14c0.2,3,0.6,5.3,1.3,6.9c0.5,1.3,1.5,2.7,4.6,2.7c1.6,0,3.7-0.8,6.3-2.5
		c2.4-1.5,4.3-3.1,5.8-4.9l2.1-2.5l1.5,2.9c0.7,1.3,1,2.9,1,4.9c0,4.7-1.5,8.6-4.6,11.5c-3,2.9-7,4.4-11.6,4.4
		c-4.5,0-8.6-2.1-12.3-6.4c-3.5-3.9-6.7-9.9-9.7-17.7c-1.1-2.9-1.3-5.3-1.5-7.1l-1.1-0.4c0.3,3.1,0.8,6.4,1.8,9.7
		c1.1,4,3,8.3,5.4,12.6c2.6,4.9,5.5,8.6,8.5,11c2.9,2.3,5.8,3.4,8.9,3.4c2.4,0,4.7-0.4,6.8-1.3c2.1-0.9,4-2.3,5.7-4.2
		c1.7-1.9,3-3.9,3.9-6.1c0.9-2.1,1.3-4.5,1.3-7.1c0-3.1-0.7-6.2-2.1-9c-1.2-2.3-2.7-3.9-4.5-5.1c-1.2,2.1-2.6,4-4.1,5.8l-0.1,0.1
		c-2.8,3.1-5.8,4.8-8.6,4.9h-0.9l0,0c-1-1-1.5-2.3-1.5-3.6V48.4h44.6v2.1c0,8.2,0,12.7-0.1,14c0.2,3,0.3,5.3,1,6.9
		c0.5,1.3,1.8,2.7,4.9,2.7c1.6,0,3.7-0.8,6.3-2.5c2.4-1.5,4.4-3.1,5.8-4.9l2.1-2.5l1.5,2.9c0.7,1.3,1,2.9,1,4.9
		c0,4.7-1.5,8.6-4.6,11.5c-3,2.9-7,4.4-11.6,4.4c-4.5,0-8.6-2.1-12.3-6.4c-3.5-3.9-6.4-9.1-9.4-16.9c-1.1-2.9-1.4-6.3-1.6-8.1
		l-1.3-0.2c0.3,3.1,0.8,6.4,1.8,9.7c1.1,4,3,8.3,5.4,12.6c2.6,4.9,5.5,8.6,8.5,11c2.9,2.3,5.8,3.4,8.9,3.4c2.4,0,4.7-0.4,6.8-1.3
		c2.1-0.9,4-2.3,5.7-4.2c1.7-1.9,3-3.9,3.9-6.1c0.9-2.1,1.3-4.5,1.3-7.1c0-3.1-0.7-6.2-2.1-9c-1.2-2.3-2.6-3.9-4.4-5.1
		c-1.3,2.1-2.7,4-4.2,5.8l-0.1,0.1c-2.8,3.1-5.7,4.8-8.6,4.9h-0.9l-0.3-0.3c-0.8-0.8-1.2-1.8-1.2-2.9V48.5H651.6z M516.8,87.2
		l-2.8-4.4c-1.7-2.6-4.2-5.1-6.4-7.1c-2.3-1.9-5.5-3.8-8.3-5.1l-3.5-1.7l3.3-2.1c4.8-3.1,9.7-5.7,14.9-7.7l2.8-1.2V87.2z"/>
</g>
<g>
	<path class="st1" d="M144.7,121.3c0-3.7,0.2-7.4,0-11.1c-0.3-5.7,4.5-10,9.8-9.8c3.4,0.1,6.8,0,10.3,0c0-0.5,0.1-0.9,0.1-1.3
		c0-3.7,0-7.5,0-11.2c0-3.5-2.7-6.3-6.2-6.3c-12.6,0-25.3,0-37.9,0c-3.7,0-6.2,2.6-6.3,6.3c0,1.6,0,3.1,0,4.8
		c-3.3,0-6.6,0.3-9.8-0.1c-3.2-0.4-5-3.2-5-6.5c0-6.2,0-12.3,0-18.5c0-3.8,2.8-6.6,6.6-6.6c23.9,0,47.7,0,71.6,0
		c3.8,0,6.6,2.8,6.7,6.8c0.1,6.1,0.1,12.2,0,18.3c-0.1,4.1-2.9,6.7-7,6.7c-2.5,0-4.9,0-7.7,0c0,1.2,0,2.4,0,3.5c0,2.2-0.1,4.4,0,6.7
		c0,1.3-0.4,2.3-1.3,3.2c-6.1,6.2-12.1,12.3-18.1,18.5c-1,1-2,1.5-3.4,1.5c-8-0.1-16,0-24,0c-4.7,0-8.7-3.9-8.8-8.6
		c0-4.7,0-9.4,0-14.1c0-1.6,1.1-2.7,2.4-2.7s2.4,1.3,2.4,2.8c0,4.5,0,9,0,13.5c0,2.5,1.7,4.3,4.3,4.3c6.9,0,13.8,0,20.8,0
		C144.2,121.4,144.4,121.4,144.7,121.3z M162.2,105.9c-0.1-0.1-0.2-0.2-0.3-0.3c-2.7,0-5.3,0-8,0c-2.1,0-4,1.2-4.2,3
		c-0.2,3.2-0.1,6.5-0.1,9C153.6,113.8,157.9,109.8,162.2,105.9z M117.2,66.6c-1.6,0-2.8,1.3-2.8,2.9s1.3,2.9,2.9,2.8
		c1.5,0,2.9-1.4,2.9-2.9C120.2,67.8,118.8,66.6,117.2,66.6z M107.9,66.6c-1.6,0-2.8,1.3-2.8,2.9s1.3,2.9,2.9,2.9
		c1.5,0,2.9-1.4,2.9-2.9C110.8,67.9,109.4,66.6,107.9,66.6z"/>
	<path class="st1" d="M94.4,47.1c0.5-14,17.2-26.3,33-19.8c7.8-14.3,20.6-19.8,36-19.4c15.4,0.4,29.8,12.7,33,27.6
		c0.6,2.7,0.7,5.6,0.7,8.4c0,1.3,0.4,1.7,1.5,2.1c7.6,2.5,13.9,6.8,17.1,14.3c4,9.4,3.8,19-0.5,28.2c-3.5,7.6-10.1,11-18.3,11.4
		c-4.1,0.2-8.3,0-12.4,0c-2,0-3.2-1.1-3.2-2.9c0-1.7,1.2-2.9,3.2-2.9c3.5,0,7.1,0,10.6,0c9.2,0,14.7-4.3,16.7-13.3
		c1.1-4.6,1.2-9.3,0.1-14c-1.8-7.7-6.8-12.5-14.1-15.1c-1.3-0.5-2.7-0.8-4.1-1.2c-2.2-0.6-2.9-1.5-2.7-3.7c0.5-4.7,0.3-9.3-1.4-13.7
		c-3.3-8.9-10-14.1-18.5-17.6c-12.5-5.2-28.5,1-35,8.7c-1.9,2.2-3.3,4.6-3.8,7.5c-0.5,3-2.4,3.8-5,2.3c-8.5-4.7-18.4-2.7-24.2,5
		c-2.3,3.1-3.5,6.4-2.8,10.3c0.4,2.3-0.9,3.5-3.3,3.6c-3.6,0.3-7.3,0.4-10.8,1.3C74.3,57.3,70,66.2,71,76.9
		c0.9,9.3,7.4,16.3,16.6,18.6c0.5,0.1,1.1,0.1,1.7,0.1c3,0,6.1,0,9.1,0c1.7,0,2.9,1.3,2.9,2.9s-1.2,2.8-2.9,2.9
		c-3.5,0-7.1,0.2-10.6-0.1c-1.8-0.1-3.5-0.8-5.2-1.5c-9-3.8-15.3-10-17-19.9c-2-11.4,1.4-24.7,15.7-30.2c3.6-1.4,7.6-1.8,11.5-2.6
		C93.4,47.1,93.8,47.1,94.4,47.1z"/>
	<path class="st1" d="M169,59c-18.2,0-36,0-53.8,0c0.7-2.4,4-4.8,6.7-4.8c13.4,0,26.8-0.1,40.2,0C165.1,54.2,167.3,56.1,169,59z"/>
	<path class="st1" d="M132.7,90.5c2.4,0,4.9,0,7.3,0c1,0,1.7,0.3,1.7,1.4c0,1-0.8,1.3-1.7,1.3c-5,0-10,0-15,0c-1,0-1.7-0.4-1.7-1.4
		s0.8-1.3,1.7-1.3C127.6,90.6,130.1,90.5,132.7,90.5z"/>
	<path class="st1" d="M132.5,96.9c2.5,0,4.9,0,7.4,0c1,0,1.8,0.2,1.8,1.3c0,1.1-0.8,1.3-1.6,1.3c-5,0-10.1,0-15.1,0
		c-0.9,0-1.6-0.4-1.6-1.4s0.7-1.3,1.7-1.3C127.5,96.9,130,96.9,132.5,96.9z"/>
	<path class="st1" d="M132.4,105.8c-2.4,0-4.8,0-7.3,0c-0.9,0-1.8-0.1-1.9-1.2c0-1.1,0.8-1.3,1.8-1.3c4.9,0,9.9,0,14.8,0
		c0.9,0,1.8,0.1,1.8,1.3c0,1.2-0.9,1.2-1.8,1.2C137.4,105.7,134.9,105.7,132.4,105.8C132.4,105.7,132.4,105.7,132.4,105.8z"/>
</g>
</svg>
