<?xml version="1.0" encoding="utf-8"?>
<!-- Generator: Adobe Illustrator 21.0.0, SVG Export Plug-In . SVG Version: 6.00 Build 0)  -->
<svg version="1.1" id="Layer_1" xmlns="http://www.w3.org/2000/svg" xmlns:xlink="http://www.w3.org/1999/xlink" x="0px" y="0px"
	 viewBox="0 0 100 100" style="enable-background:new 0 0 100 100;" xml:space="preserve">
<style type="text/css">
	.st0{fill:#FFFFFF;stroke:#006EFC;stroke-linecap:round;stroke-linejoin:round;stroke-miterlimit:10;}
	.st1{fill:none;stroke:#006EFC;stroke-linecap:round;stroke-linejoin:round;stroke-miterlimit:10;}
</style>
<path class="st0" d="M65,32.5c0,8.3-6.7,15-15,15s-15-6.7-15-15s6.7-15,15-15S65,24.2,65,32.5z"/>
<path class="st0" d="M70,55v27.5H30V55c0-4.1,3.4-7.5,7.5-7.5h25C66.6,47.5,70,50.9,70,55z"/>
<path class="st0" d="M70,75h10V57.5c0-5.5-4.5-10-10-10l0,0h-7.5c4.1,0,7.5,3.4,7.5,7.5V75z"/>
<path class="st0" d="M30,75H20V57.5l0,0c0-5.5,4.5-10,10-10h7.5c-4.1,0-7.5,3.4-7.5,7.5V75L30,75z"/>
<polygon class="st1" points="60.6,57.9 46.5,72.1 39.4,65 46.5,72.1 "/>
</svg>
